# WaveFront *.obj file (generated by Cinema 4D)

mtllib ./100m-uv-plane.mtl

v -50.000000 0.000000 50.000000
v 50.000000 0.000000 50.000000
v -50.000000 0.000000 -50.000000
v 50.000000 0.000000 -50.000000
# 4 vertices

vn 0.000000 1.000000 0.000000
vn 0.000000 1.000000 0.000000
# 2 normals

vt 30.0000 0.000000 0.000000
vt 0.000000 30.0000 0.000000
vt 30.0000 30.0000 0.000000
vt 0.000000 0.000000 0.000000
# 4 texture coordinates

o Plane.1
usemtl Mat_1
f 4/3/2 3/2/1 2/1/1
f 2/1/1 3/2/1 1/5/1

