# WaveFront *.obj file (generated by Cinema 4D)

mtllib ./5_colors.mtl

v -1.503272 3.332867 -6.074014
v -2.516919 2.245864 -7.412275
v -2.415964 2.354125 -4.587725
v -3.429611 1.267121 -5.925986
v -3.878672 3.718121 -4.587725
v -4.892319 2.631118 -5.925986
v -2.965980 4.696864 -6.074014
v -3.979627 3.609860 -7.412275
# 8 vertices

vn 0.731354 -0.681998 -0.000000
vn 0.731354 -0.681998 -0.000000
vn -0.456346 -0.489371 0.743145
vn -0.456346 -0.489371 0.743145
vn -0.731354 0.681998 0.000000
vn -0.731354 0.681998 0.000000
vn 0.456346 0.489371 -0.743145
vn -0.506824 -0.543502 -0.669131
vn -0.506824 -0.543502 -0.669131
vn 0.506824 0.543502 0.669131
vn 0.731354 -0.681998 0.000000
vn -0.456346 -0.489371 0.743145
vn -0.731354 0.681998 0.000000
vn -0.506824 -0.543502 -0.669131
vn 0.506823 0.543502 0.669131
# 15 normals

vt 0.000000 0.000000 0.000000
vt 0.000000 1.000000 0.000000
vt 1.000000 1.000000 0.000000
vt 1.000000 0.000000 0.000000
# 4 texture coordinates

o Cube.4
usemtl green_1
f 4/3/1 2/2/2 1/1/1
f 6/3/3 4/2/4 3/1/3
f 8/3/5 6/2/6 5/1/5
f 2/3/7 8/2/7 7/1/7
f 6/3/8 8/2/9 2/1/8
f 3/3/10 1/2/10 7/1/10
f 3/4/11 4/3/1 1/1/1
f 5/4/12 6/3/3 3/1/3
f 7/4/13 8/3/5 5/1/5
f 1/4/7 2/3/7 7/1/7
f 4/4/14 6/3/8 2/1/8
f 5/4/15 3/3/10 7/1/10

v -1.364327 2.243891 3.537668
v 0.342780 3.243891 3.244775
v -1.071434 1.243891 1.830561
v 0.635673 2.243891 1.537668
v -2.071434 2.658104 0.830561
v -0.364327 3.658104 0.537668
v -2.364327 3.658104 2.537668
v -0.657220 4.658104 2.244775
# 8 vertices

vn 0.500000 -0.707107 0.500000
vn 0.146447 -0.500000 -0.853553
vn 0.146447 -0.500000 -0.853553
vn -0.500000 0.707107 -0.500000
vn -0.500000 0.707107 -0.500000
vn -0.146447 0.500000 0.853553
vn -0.146447 0.500000 0.853553
vn 0.853553 0.500000 -0.146447
vn 0.853553 0.500000 -0.146447
vn -0.853553 -0.500000 0.146447
vn -0.853553 -0.500000 0.146447
vn 0.500000 -0.707107 0.500000
vn 0.146447 -0.500000 -0.853553
vn -0.500000 0.707107 -0.500000
vn -0.146447 0.500000 0.853553
vn 0.853553 0.500000 -0.146447
vn -0.853553 -0.500000 0.146447
# 17 normals

# 0 texture coordinate

o Cube.3
usemtl blue_1
f 12/3/16 10/2/16 9/1/16
f 14/3/17 12/2/18 11/1/17
f 16/3/19 14/2/20 13/1/19
f 10/3/21 16/2/22 15/1/21
f 14/3/23 16/2/24 10/1/23
f 11/3/25 9/2/26 15/1/25
f 11/4/27 12/3/16 9/1/16
f 13/4/28 14/3/17 11/1/17
f 15/4/29 16/3/19 13/1/19
f 9/4/30 10/3/21 15/1/21
f 12/4/31 14/3/23 10/1/23
f 13/4/32 11/3/25 15/1/25

v 1.694523 0.350875 -6.074014
v 0.680876 -0.736129 -7.412275
v 0.781831 -0.627868 -4.587725
v -0.231816 -1.714871 -5.925986
v -0.680876 0.736129 -4.587725
v -1.694523 -0.350875 -5.925986
v 0.231816 1.714871 -6.074014
v -0.781831 0.627868 -7.412275
# 8 vertices

vn 0.731354 -0.681998 0.000000
vn 0.731354 -0.681998 0.000000
vn -0.456346 -0.489371 0.743145
vn -0.456346 -0.489371 0.743145
vn -0.731354 0.681998 -0.000000
vn -0.731354 0.681998 -0.000000
vn 0.456346 0.489371 -0.743145
vn 0.456346 0.489371 -0.743145
vn -0.506824 -0.543502 -0.669131
vn 0.506824 0.543502 0.669131
vn 0.506824 0.543502 0.669131
vn 0.731354 -0.681998 -0.000000
vn -0.456346 -0.489371 0.743145
vn -0.731354 0.681998 -0.000000
vn 0.456346 0.489371 -0.743145
# 15 normals

# 0 texture coordinate

o Cube.2
usemtl green_1
f 20/3/33 18/2/34 17/1/33
f 22/3/35 20/2/36 19/1/35
f 24/3/37 22/2/38 21/1/37
f 18/3/39 24/2/40 23/1/39
f 22/3/8 24/2/41 18/1/8
f 19/3/42 17/2/43 23/1/42
f 19/4/44 20/3/33 17/1/33
f 21/4/45 22/3/35 19/1/35
f 23/4/46 24/3/37 21/1/37
f 17/4/47 18/3/39 23/1/39
f 20/4/9 22/3/8 18/1/8
f 21/4/10 19/3/42 23/1/42

v -0.500000 -0.707107 -1.500000
v 1.207107 0.292893 -1.792893
v -0.207107 -1.707107 -3.207107
v 1.500000 -0.707107 -3.500000
v -1.207107 -0.292893 -4.207107
v 0.500000 0.707107 -4.500000
v -1.500000 0.707107 -2.500000
v 0.207107 1.707107 -2.792893
# 8 vertices

vn 0.500000 -0.707107 0.500000
vn 0.500000 -0.707107 0.500000
vn 0.146447 -0.500000 -0.853553
vn 0.146447 -0.500000 -0.853553
vn -0.500000 0.707107 -0.500000
vn -0.500000 0.707107 -0.500000
vn -0.146447 0.500000 0.853553
vn -0.146447 0.500000 0.853553
vn 0.853553 0.500000 -0.146447
vn 0.853553 0.500000 -0.146447
vn -0.853553 -0.500000 0.146447
vn -0.853553 -0.500000 0.146447
vn 0.500000 -0.707107 0.500000
vn 0.146447 -0.500000 -0.853553
vn -0.500000 0.707107 -0.500000
vn -0.146447 0.500000 0.853553
vn 0.853553 0.500000 -0.146447
vn -0.853553 -0.500000 0.146447
# 18 normals

# 0 texture coordinate

o Cube.1
usemtl blue_1
f 28/3/48 26/2/49 25/1/48
f 30/3/50 28/2/51 27/1/50
f 32/3/52 30/2/53 29/1/52
f 26/3/54 32/2/55 31/1/54
f 30/3/56 32/2/57 26/1/56
f 27/3/58 25/2/59 31/1/58
f 27/4/60 28/3/48 25/1/48
f 29/4/61 30/3/50 27/1/50
f 31/4/62 32/3/52 29/1/52
f 25/4/63 26/3/54 31/1/54
f 28/4/64 30/3/56 26/1/56
f 29/4/65 27/3/58 31/1/58

v -1.000000 -1.000000 1.000000
v -1.000000 1.000000 1.000000
v 1.000000 -1.000000 1.000000
v 1.000000 1.000000 1.000000
v 1.000000 -1.000000 -1.000000
v 1.000000 1.000000 -1.000000
v -1.000000 -1.000000 -1.000000
v -1.000000 1.000000 -1.000000
# 8 vertices

vn 0.000000 0.000000 1.000000
vn 1.000000 0.000000 0.000000
vn 0.000000 0.000000 -1.000000
vn 0.000000 0.000000 -1.000000
vn -1.000000 0.000000 0.000000
vn 0.000000 1.000000 0.000000
vn 0.000000 -1.000000 0.000000
# 7 normals

# 0 texture coordinate

o Cube
usemtl red_1
f 36/3/66 34/2/66 33/1/66
f 38/3/67 36/2/67 35/1/67
f 40/3/68 38/2/69 37/1/68
f 34/3/70 40/2/70 39/1/70
f 38/3/71 40/2/71 34/1/71
f 35/3/72 33/2/72 39/1/72
f 35/4/66 36/3/66 33/1/66
f 37/4/67 38/3/67 35/1/67
f 39/4/68 40/3/68 37/1/68
f 33/4/70 34/3/70 39/1/70
f 36/4/71 38/3/71 34/1/71
f 37/4/72 35/3/72 39/1/72

