# Blender 4.0.2
# www.blender.org
mtllib cornel.mtl
o Cube
v -3.000000 6.000000 3.000000
v -3.000000 0.000000 3.000000
v -3.000000 6.000000 -3.000000
v -3.000000 0.000000 -3.000000
v 3.000000 6.000000 3.000000
v 3.000000 0.000000 3.000000
v 3.000000 6.000000 -3.000000
v 3.000000 0.000000 -3.000000
v 3.000000 0.000000 1.000000
v 3.000000 0.000000 -1.000000
v -3.000000 6.000000 1.000000
v -3.000000 6.000000 -1.000000
v 3.000000 6.000000 -1.000000
v 3.000000 6.000000 1.000000
v -3.000000 0.000000 -1.000000
v -3.000000 0.000000 1.000000
v -1.000000 0.000000 3.000000
v 1.000000 0.000000 3.000000
v -1.000000 6.000000 -3.000000
v 1.000000 6.000000 -3.000000
v 1.000000 0.000000 -3.000000
v -1.000000 0.000000 -3.000000
v 1.000000 6.000000 3.000000
v -1.000000 6.000000 3.000000
v -1.000000 0.000000 1.000000
v 1.000000 0.000000 1.000000
v -1.000000 0.000000 -1.000000
v 1.000000 0.000000 -1.000000
v 1.000000 6.000000 1.000000
v -1.000000 6.000000 1.000000
v 1.000000 6.000000 -1.000000
v -1.000000 6.000000 -1.000000
v -3.000000 4.000000 3.000000
v -3.000000 2.000000 3.000000
v 3.000000 2.000000 -3.000000
v 3.000000 4.000000 -3.000000
v -3.000000 4.000000 -3.000000
v -3.000000 2.000000 -3.000000
v 3.000000 4.000000 3.000000
v 3.000000 2.000000 3.000000
v -3.000000 4.000000 1.000000
v -3.000000 2.000000 1.000000
v -3.000000 4.000000 -1.000000
v -3.000000 2.000000 -1.000000
v 3.000000 4.000000 -1.000000
v 3.000000 2.000000 -1.000000
v 3.000000 4.000000 1.000000
v 3.000000 2.000000 1.000000
v -1.000000 4.000000 -3.000000
v -1.000000 2.000000 -3.000000
v 1.000000 4.000000 -3.000000
v 1.000000 2.000000 -3.000000
vn -0.0000 -1.0000 -0.0000
vn -0.0000 -0.0000 1.0000
vn -1.0000 -0.0000 -0.0000
vn -0.0000 1.0000 -0.0000
vn 1.0000 -0.0000 -0.0000
vt 0.791667 0.750000
vt 0.875000 0.666667
vt 0.791667 0.666667
vt 0.541667 1.000000
vt 0.625000 0.916667
vt 0.541667 0.916667
vt 0.541667 0.250000
vt 0.625000 0.166667
vt 0.541667 0.166667
vt 0.291667 0.750000
vt 0.375000 0.666667
vt 0.291667 0.666667
vt 0.541667 0.750000
vt 0.625000 0.666667
vt 0.541667 0.666667
vt 0.541667 0.583333
vt 0.625000 0.500000
vt 0.541667 0.500000
vt 0.625000 0.583333
vt 0.291667 0.583333
vt 0.375000 0.500000
vt 0.291667 0.500000
vt 0.375000 0.583333
vt 0.541667 0.083333
vt 0.625000 0.000000
vt 0.541667 0.000000
vt 0.625000 0.083333
vt 0.791667 0.583333
vt 0.875000 0.500000
vt 0.791667 0.500000
vt 0.875000 0.583333
vt 0.708333 0.583333
vt 0.708333 0.666667
vt 0.708333 0.500000
vt 0.125000 0.666667
vt 0.208333 0.583333
vt 0.125000 0.583333
vt 0.208333 0.666667
vt 0.208333 0.500000
vt 0.125000 0.500000
vt 0.125000 0.750000
vt 0.208333 0.750000
vt 0.541667 0.833333
vt 0.625000 0.750000
vt 0.625000 0.833333
vt 0.708333 0.750000
vt 0.375000 0.916667
vt 0.458333 0.833333
vt 0.375000 0.833333
vt 0.458333 0.916667
vt 0.458333 0.750000
vt 0.375000 0.750000
vt 0.375000 0.166667
vt 0.458333 0.083333
vt 0.375000 0.083333
vt 0.458333 0.166667
vt 0.458333 0.000000
vt 0.375000 0.000000
vt 0.458333 0.583333
vt 0.458333 0.666667
vt 0.458333 0.500000
vt 0.375000 0.250000
vt 0.458333 0.250000
vt 0.375000 1.000000
vt 0.458333 1.000000
vt 0.875000 0.750000
vt 0.625000 1.000000
vt 0.625000 0.250000
s 0
usemtl Material
f 20/1/1 13/2/1 31/3/1
f 36/4/2 20/5/2 51/6/2
f 22/10/4 15/11/4 27/12/4
f 25/20/4 2/21/4 17/22/4
f 27/12/4 16/23/4 25/20/4
f 29/28/1 5/29/1 23/30/1
f 31/3/1 14/31/1 29/28/1
f 12/14/1 30/32/1 11/19/1
f 11/19/1 24/34/1 1/17/1
f 30/32/1 23/30/1 24/34/1
f 10/35/4 26/36/4 9/37/4
f 28/38/4 25/20/4 26/36/4
f 9/37/4 18/39/4 6/40/4
f 26/36/4 17/22/4 18/39/4
f 8/41/4 28/38/4 10/35/4
f 21/42/4 27/12/4 28/38/4
f 49/43/2 3/44/2 37/13/2
f 51/6/2 19/45/2 49/43/2
f 3/44/1 32/33/1 12/14/1
f 19/46/1 31/3/1 32/33/1
f 21/47/2 50/48/2 22/49/2
f 52/50/2 49/43/2 50/48/2
f 22/49/2 38/51/2 4/52/2
f 50/48/2 37/13/2 38/51/2
f 8/64/2 52/50/2 21/47/2
f 35/65/2 51/6/2 52/50/2
f 20/1/1 7/66/1 13/2/1
f 36/4/2 7/67/2 20/5/2
f 22/10/4 4/52/4 15/11/4
f 25/20/4 16/23/4 2/21/4
f 27/12/4 15/11/4 16/23/4
f 29/28/1 14/31/1 5/29/1
f 31/3/1 13/2/1 14/31/1
f 12/14/1 32/33/1 30/32/1
f 11/19/1 30/32/1 24/34/1
f 30/32/1 29/28/1 23/30/1
f 10/35/4 28/38/4 26/36/4
f 28/38/4 27/12/4 25/20/4
f 9/37/4 26/36/4 18/39/4
f 26/36/4 25/20/4 17/22/4
f 8/41/4 21/42/4 28/38/4
f 21/42/4 22/10/4 27/12/4
f 49/43/2 19/45/2 3/44/2
f 51/6/2 20/5/2 19/45/2
f 3/44/1 19/46/1 32/33/1
f 19/46/1 20/1/1 31/3/1
f 21/47/2 52/50/2 50/48/2
f 52/50/2 51/6/2 49/43/2
f 22/49/2 50/48/2 38/51/2
f 50/48/2 49/43/2 37/13/2
f 8/64/2 35/65/2 52/50/2
f 35/65/2 36/4/2 51/6/2
usemtl Material.001
f 32/33/1 29/28/1 30/32/1
f 32/33/1 31/3/1 29/28/1
usemtl Material.003
f 37/13/5 12/14/5 43/15/5
f 41/16/5 1/17/5 33/18/5
f 43/15/5 11/19/5 41/16/5
f 15/11/5 42/59/5 16/23/5
f 44/60/5 41/16/5 42/59/5
f 16/23/5 34/61/5 2/21/5
f 42/59/5 33/18/5 34/61/5
f 4/52/5 44/60/5 15/11/5
f 38/51/5 43/15/5 44/60/5
f 37/13/5 3/44/5 12/14/5
f 41/16/5 11/19/5 1/17/5
f 43/15/5 12/14/5 11/19/5
f 15/11/5 44/60/5 42/59/5
f 44/60/5 43/15/5 41/16/5
f 16/23/5 42/59/5 34/61/5
f 42/59/5 41/16/5 33/18/5
f 4/52/5 38/51/5 44/60/5
f 38/51/5 37/13/5 43/15/5
usemtl Material.004
f 39/7/3 14/8/3 47/9/3
f 45/24/3 7/25/3 36/26/3
f 47/9/3 13/27/3 45/24/3
f 9/53/3 46/54/3 10/55/3
f 48/56/3 45/24/3 46/54/3
f 10/55/3 35/57/3 8/58/3
f 46/54/3 36/26/3 35/57/3
f 6/62/3 48/56/3 9/53/3
f 40/63/3 47/9/3 48/56/3
f 39/7/3 5/68/3 14/8/3
f 45/24/3 13/27/3 7/25/3
f 47/9/3 14/8/3 13/27/3
f 9/53/3 48/56/3 46/54/3
f 48/56/3 47/9/3 45/24/3
f 10/55/3 46/54/3 35/57/3
f 46/54/3 45/24/3 36/26/3
f 6/62/3 40/63/3 48/56/3
f 40/63/3 39/7/3 47/9/3
o Cube.001
v -2.448832 0.000000 -0.926743
v -2.448832 3.000000 -0.926743
v -1.163257 0.000000 -2.458832
v -1.163257 3.000000 -2.458832
v -0.916743 0.000000 0.358832
v -0.916743 3.000000 0.358832
v 0.368832 0.000000 -1.173257
v 0.368832 3.000000 -1.173257
vn -0.7660 -0.0000 -0.6428
vn 0.6428 -0.0000 -0.7660
vn 0.7660 -0.0000 0.6428
vn -0.6428 -0.0000 0.7660
vn -0.0000 -1.0000 -0.0000
vn -0.0000 1.0000 -0.0000
vt 0.625000 0.000000
vt 0.375000 0.250000
vt 0.375000 0.000000
vt 0.625000 0.250000
vt 0.375000 0.500000
vt 0.625000 0.500000
vt 0.375000 0.750000
vt 0.625000 0.750000
vt 0.375000 1.000000
vt 0.125000 0.750000
vt 0.125000 0.500000
vt 0.875000 0.500000
vt 0.625000 1.000000
vt 0.875000 0.750000
s 0
usemtl Material.002
f 54/69/6 55/70/6 53/71/6
f 56/72/7 59/73/7 55/70/7
f 60/74/8 57/75/8 59/73/8
f 58/76/9 53/77/9 57/75/9
f 59/73/10 53/78/10 55/79/10
f 56/80/11 58/76/11 60/74/11
f 54/69/6 56/72/6 55/70/6
f 56/72/7 60/74/7 59/73/7
f 60/74/8 58/76/8 57/75/8
f 58/76/9 54/81/9 53/77/9
f 59/73/10 57/75/10 53/78/10
f 56/80/11 54/82/11 58/76/11
o Cube.002
v 0.300000 0.000000 1.700000
v 0.300000 2.000000 1.700000
v 0.300000 0.000000 0.300000
v 0.300000 2.000000 0.300000
v 1.700000 0.000000 1.700000
v 1.700000 2.000000 1.700000
v 1.700000 0.000000 0.300000
v 1.700000 2.000000 0.300000
vn -1.0000 -0.0000 -0.0000
vn -0.0000 -0.0000 -1.0000
vn 1.0000 -0.0000 -0.0000
vn -0.0000 -0.0000 1.0000
vn -0.0000 -1.0000 -0.0000
vn -0.0000 1.0000 -0.0000
vt 0.625000 0.000000
vt 0.375000 0.250000
vt 0.375000 0.000000
vt 0.625000 0.250000
vt 0.375000 0.500000
vt 0.625000 0.500000
vt 0.375000 0.750000
vt 0.625000 0.750000
vt 0.375000 1.000000
vt 0.125000 0.750000
vt 0.125000 0.500000
vt 0.875000 0.500000
vt 0.625000 1.000000
vt 0.875000 0.750000
s 0
usemtl Material.005
f 62/83/12 63/84/12 61/85/12
f 64/86/13 67/87/13 63/84/13
f 68/88/14 65/89/14 67/87/14
f 66/90/15 61/91/15 65/89/15
f 67/87/16 61/92/16 63/93/16
f 64/94/17 66/90/17 68/88/17
f 62/83/12 64/86/12 63/84/12
f 64/86/13 68/88/13 67/87/13
f 68/88/14 66/90/14 65/89/14
f 66/90/15 62/95/15 61/91/15
f 67/87/16 65/89/16 61/92/16
f 64/94/17 62/96/17 66/90/17
